<svg width="279" height="185" viewBox="0 0 279 185" fill="none" xmlns="http://www.w3.org/2000/svg">
<path d="M246.044 50.5297V51.7343L239.059 67.3951H236.8L243.773 52.2904H234.645V50.5297H246.044ZM250.619 65.5997H250.839C252.075 65.5997 253.079 65.426 253.851 65.0785C254.623 64.731 255.218 64.2638 255.635 63.6769C256.052 63.09 256.337 62.4297 256.492 61.6961C256.646 60.9548 256.723 60.1941 256.723 59.4142V56.8311C256.723 56.0665 256.635 55.387 256.457 54.7924C256.287 54.1978 256.048 53.6997 255.739 53.2981C255.438 52.8966 255.094 52.5915 254.708 52.383C254.322 52.1745 253.913 52.0703 253.48 52.0703C252.986 52.0703 252.542 52.1707 252.148 52.3714C251.762 52.5645 251.434 52.8386 251.163 53.1939C250.901 53.5491 250.7 53.9661 250.561 54.4449C250.422 54.9237 250.353 55.4449 250.353 56.0086C250.353 56.5106 250.414 56.9971 250.538 57.4681C250.661 57.9392 250.851 58.3639 251.106 58.7423C251.36 59.1207 251.677 59.4219 252.055 59.6458C252.441 59.8621 252.893 59.9702 253.411 59.9702C253.889 59.9702 254.337 59.8775 254.754 59.6922C255.179 59.4991 255.554 59.2404 255.878 58.9161C256.21 58.584 256.472 58.2095 256.666 57.7925C256.866 57.3755 256.982 56.9392 257.013 56.4836H258.032C258.032 57.1245 257.905 57.7577 257.65 58.3832C257.403 59.001 257.056 59.5647 256.608 60.0744C256.16 60.5841 255.635 60.9934 255.032 61.3023C254.43 61.6034 253.774 61.754 253.063 61.754C252.229 61.754 251.507 61.5918 250.897 61.2675C250.287 60.9432 249.785 60.5107 249.391 59.9702C249.005 59.4296 248.715 58.8273 248.522 58.1631C248.337 57.4913 248.244 56.8117 248.244 56.1245C248.244 55.3213 248.356 54.5684 248.58 53.8657C248.804 53.163 249.136 52.5452 249.576 52.0123C250.017 51.4718 250.561 51.0509 251.21 50.7498C251.866 50.4486 252.623 50.298 253.48 50.298C254.445 50.298 255.268 50.4911 255.947 50.8772C256.627 51.2633 257.179 51.7807 257.604 52.4294C258.036 53.078 258.353 53.8078 258.554 54.6186C258.754 55.4295 258.855 56.2635 258.855 57.1206V57.8967C258.855 58.7693 258.797 59.6574 258.681 60.5609C258.573 61.4567 258.361 62.3139 258.044 63.1324C257.735 63.951 257.283 64.6846 256.689 65.3333C256.094 65.9742 255.318 66.4839 254.36 66.8623C253.411 67.233 252.237 67.4183 250.839 67.4183H250.619V65.5997ZM261.646 54.665V53.773C261.646 53.1321 261.785 52.549 262.063 52.0239C262.341 51.4988 262.739 51.078 263.257 50.7613C263.774 50.4447 264.388 50.2864 265.098 50.2864C265.824 50.2864 266.442 50.4447 266.952 50.7613C267.469 51.078 267.867 51.4988 268.145 52.0239C268.423 52.549 268.562 53.1321 268.562 53.773V54.665C268.562 55.2905 268.423 55.8658 268.145 56.3909C267.874 56.916 267.481 57.3369 266.963 57.6535C266.454 57.9701 265.84 58.1284 265.121 58.1284C264.403 58.1284 263.782 57.9701 263.257 57.6535C262.739 57.3369 262.341 56.916 262.063 56.3909C261.785 55.8658 261.646 55.2905 261.646 54.665ZM263.257 53.773V54.665C263.257 55.0202 263.322 55.3561 263.453 55.6727C263.592 55.9893 263.801 56.248 264.079 56.4488C264.357 56.6419 264.704 56.7384 265.121 56.7384C265.538 56.7384 265.882 56.6419 266.152 56.4488C266.423 56.248 266.623 55.9893 266.755 55.6727C266.886 55.3561 266.952 55.0202 266.952 54.665V53.773C266.952 53.4101 266.882 53.0703 266.743 52.7537C266.612 52.4294 266.407 52.1707 266.129 51.9776C265.859 51.7768 265.515 51.6764 265.098 51.6764C264.689 51.6764 264.345 51.7768 264.067 51.9776C263.797 52.1707 263.592 52.4294 263.453 52.7537C263.322 53.0703 263.257 53.4101 263.257 53.773ZM269.859 64.1634V63.2599C269.859 62.6266 269.998 62.0475 270.276 61.5223C270.554 60.9972 270.952 60.5764 271.469 60.2598C271.987 59.9431 272.6 59.7848 273.311 59.7848C274.037 59.7848 274.655 59.9431 275.164 60.2598C275.682 60.5764 276.079 60.9972 276.357 61.5223C276.635 62.0475 276.774 62.6266 276.774 63.2599V64.1634C276.774 64.7966 276.635 65.3758 276.357 65.9009C276.087 66.426 275.693 66.8469 275.176 67.1635C274.666 67.4801 274.052 67.6384 273.334 67.6384C272.616 67.6384 271.998 67.4801 271.481 67.1635C270.963 66.8469 270.562 66.426 270.276 65.9009C269.998 65.3758 269.859 64.7966 269.859 64.1634ZM271.469 63.2599V64.1634C271.469 64.5186 271.535 64.8584 271.666 65.1827C271.805 65.4993 272.014 65.758 272.292 65.9588C272.57 66.1519 272.917 66.2484 273.334 66.2484C273.751 66.2484 274.095 66.1519 274.365 65.9588C274.643 65.758 274.848 65.4993 274.979 65.1827C275.11 64.8661 275.176 64.5263 275.176 64.1634V63.2599C275.176 62.8969 275.106 62.5571 274.967 62.2405C274.836 61.9239 274.631 61.6691 274.353 61.476C274.083 61.2752 273.736 61.1748 273.311 61.1748C272.902 61.1748 272.558 61.2752 272.28 61.476C272.01 61.6691 271.805 61.9239 271.666 62.2405C271.535 62.5571 271.469 62.8969 271.469 63.2599ZM273.844 52.9274L265.608 66.1094L264.403 65.3449L272.639 52.1629L273.844 52.9274Z" fill="#EF2A82"/>
<path d="M236.91 82.8761V82.7544C236.91 82.342 236.97 81.9595 237.09 81.6069C237.21 81.2509 237.382 80.9424 237.608 80.6815C237.834 80.4171 238.107 80.2126 238.428 80.0681C238.749 79.92 239.108 79.846 239.507 79.846C239.908 79.846 240.27 79.92 240.591 80.0681C240.915 80.2126 241.19 80.4171 241.416 80.6815C241.645 80.9424 241.819 81.2509 241.939 81.6069C242.059 81.9595 242.119 82.342 242.119 82.7544V82.8761C242.119 83.2885 242.059 83.671 241.939 84.0236C241.819 84.3761 241.645 84.6846 241.416 84.949C241.19 85.2099 240.917 85.4143 240.596 85.5624C240.279 85.707 239.919 85.7792 239.517 85.7792C239.115 85.7792 238.754 85.707 238.433 85.5624C238.112 85.4143 237.837 85.2099 237.608 84.949C237.382 84.6846 237.21 84.3761 237.09 84.0236C236.97 83.671 236.91 83.2885 236.91 82.8761ZM237.888 82.7544V82.8761C237.888 83.1616 237.922 83.4313 237.989 83.6851C238.056 83.9354 238.156 84.1575 238.29 84.3514C238.428 84.5453 238.599 84.6987 238.803 84.8115C239.008 84.9208 239.246 84.9754 239.517 84.9754C239.785 84.9754 240.019 84.9208 240.22 84.8115C240.425 84.6987 240.594 84.5453 240.728 84.3514C240.862 84.1575 240.963 83.9354 241.03 83.6851C241.1 83.4313 241.135 83.1616 241.135 82.8761V82.7544C241.135 82.4724 241.1 82.2062 241.03 81.9559C240.963 81.7021 240.86 81.4782 240.723 81.2844C240.589 81.0869 240.42 80.9318 240.215 80.819C240.014 80.7062 239.778 80.6498 239.507 80.6498C239.239 80.6498 239.002 80.7062 238.798 80.819C238.597 80.9318 238.428 81.0869 238.29 81.2844C238.156 81.4782 238.056 81.7021 237.989 81.9559C237.922 82.2062 237.888 82.4724 237.888 82.7544ZM244.324 81.0517V87.8733H243.34V79.9518H244.239L244.324 81.0517ZM248.179 82.765V82.8761C248.179 83.2921 248.13 83.6781 248.031 84.0342C247.932 84.3867 247.788 84.6934 247.597 84.9543C247.41 85.2152 247.18 85.4179 246.905 85.5624C246.63 85.707 246.314 85.7792 245.958 85.7792C245.595 85.7792 245.274 85.7193 244.996 85.5994C244.717 85.4796 244.481 85.3051 244.287 85.0759C244.093 84.8468 243.938 84.5718 243.822 84.251C243.709 83.9302 243.631 83.5688 243.589 83.1669V82.5746C243.631 82.1516 243.711 81.7726 243.827 81.4377C243.943 81.1028 244.097 80.8172 244.287 80.581C244.481 80.3413 244.715 80.1598 244.99 80.0364C245.265 79.9094 245.583 79.846 245.942 79.846C246.302 79.846 246.621 79.9165 246.899 80.0575C247.178 80.195 247.412 80.3924 247.603 80.6498C247.793 80.9071 247.936 81.2156 248.031 81.5752C248.13 81.9313 248.179 82.3279 248.179 82.765ZM247.195 82.8761V82.765C247.195 82.4795 247.165 82.2115 247.106 81.9612C247.046 81.7074 246.952 81.4853 246.825 81.2949C246.702 81.101 246.543 80.9494 246.349 80.8402C246.155 80.7273 245.925 80.6709 245.657 80.6709C245.41 80.6709 245.195 80.7132 245.011 80.7978C244.832 80.8825 244.678 80.997 244.551 81.1416C244.424 81.2826 244.32 81.4448 244.239 81.6281C244.162 81.8079 244.104 81.9947 244.065 82.1886V83.5582C244.135 83.805 244.234 84.0377 244.361 84.2563C244.488 84.4713 244.657 84.6458 244.869 84.7798C245.08 84.9102 245.346 84.9754 245.667 84.9754C245.932 84.9754 246.159 84.9208 246.349 84.8115C246.543 84.6987 246.702 84.5453 246.825 84.3514C246.952 84.1575 247.046 83.9354 247.106 83.6851C247.165 83.4313 247.195 83.1616 247.195 82.8761ZM251.822 79.9518V80.7027H248.729V79.9518H251.822ZM249.776 78.561H250.754V84.2563C250.754 84.4502 250.784 84.5965 250.844 84.6952C250.904 84.7939 250.982 84.8591 251.077 84.8908C251.172 84.9226 251.274 84.9384 251.384 84.9384C251.465 84.9384 251.549 84.9314 251.637 84.9173C251.729 84.8996 251.798 84.8855 251.844 84.875L251.849 85.6735C251.771 85.6981 251.669 85.7211 251.542 85.7422C251.419 85.7669 251.269 85.7792 251.093 85.7792C250.853 85.7792 250.633 85.7316 250.432 85.6364C250.231 85.5413 250.07 85.3826 249.951 85.1605C249.834 84.9349 249.776 84.6317 249.776 84.251V78.561ZM254.033 79.9518V85.6735H253.049V79.9518H254.033ZM252.975 78.4341C252.975 78.2754 253.023 78.1415 253.118 78.0322C253.217 77.9229 253.361 77.8682 253.552 77.8682C253.739 77.8682 253.881 77.9229 253.98 78.0322C254.082 78.1415 254.133 78.2754 254.133 78.4341C254.133 78.5857 254.082 78.7161 253.98 78.8254C253.881 78.9312 253.739 78.984 253.552 78.984C253.361 78.984 253.217 78.9312 253.118 78.8254C253.023 78.7161 252.975 78.5857 252.975 78.4341ZM255.344 82.8761V82.7544C255.344 82.342 255.404 81.9595 255.524 81.6069C255.644 81.2509 255.817 80.9424 256.042 80.6815C256.268 80.4171 256.541 80.2126 256.862 80.0681C257.183 79.92 257.542 79.846 257.941 79.846C258.343 79.846 258.704 79.92 259.025 80.0681C259.349 80.2126 259.624 80.4171 259.85 80.6815C260.079 80.9424 260.253 81.2509 260.373 81.6069C260.493 81.9595 260.553 82.342 260.553 82.7544V82.8761C260.553 83.2885 260.493 83.671 260.373 84.0236C260.253 84.3761 260.079 84.6846 259.85 84.949C259.624 85.2099 259.351 85.4143 259.03 85.5624C258.713 85.707 258.353 85.7792 257.951 85.7792C257.549 85.7792 257.188 85.707 256.867 85.5624C256.547 85.4143 256.272 85.2099 256.042 84.949C255.817 84.6846 255.644 84.3761 255.524 84.0236C255.404 83.671 255.344 83.2885 255.344 82.8761ZM256.323 82.7544V82.8761C256.323 83.1616 256.356 83.4313 256.423 83.6851C256.49 83.9354 256.591 84.1575 256.725 84.3514C256.862 84.5453 257.033 84.6987 257.237 84.8115C257.442 84.9208 257.68 84.9754 257.951 84.9754C258.219 84.9754 258.454 84.9208 258.655 84.8115C258.859 84.6987 259.028 84.5453 259.162 84.3514C259.296 84.1575 259.397 83.9354 259.464 83.6851C259.534 83.4313 259.57 83.1616 259.57 82.8761V82.7544C259.57 82.4724 259.534 82.2062 259.464 81.9559C259.397 81.7021 259.295 81.4782 259.157 81.2844C259.023 81.0869 258.854 80.9318 258.649 80.819C258.448 80.7062 258.212 80.6498 257.941 80.6498C257.673 80.6498 257.437 80.7062 257.232 80.819C257.031 80.9318 256.862 81.0869 256.725 81.2844C256.591 81.4782 256.49 81.7021 256.423 81.9559C256.356 82.2062 256.323 82.4724 256.323 82.7544ZM262.758 81.1733V85.6735H261.78V79.9518H262.705L262.758 81.1733ZM262.526 82.5958L262.118 82.5799C262.122 82.1886 262.18 81.8273 262.293 81.4959C262.406 81.161 262.564 80.8701 262.769 80.6233C262.973 80.3766 263.217 80.1862 263.499 80.0522C263.784 79.9147 264.1 79.846 264.445 79.846C264.727 79.846 264.981 79.8848 265.207 79.9623C265.432 80.0364 265.624 80.1562 265.783 80.3219C265.945 80.4876 266.069 80.7027 266.153 80.9671C266.238 81.2279 266.28 81.547 266.28 81.9242V85.6735H265.297V81.9136C265.297 81.614 265.252 81.3742 265.164 81.1945C265.076 81.0111 264.948 80.8789 264.778 80.7978C264.609 80.7132 264.401 80.6709 264.154 80.6709C263.911 80.6709 263.689 80.7221 263.488 80.8243C263.291 80.9265 263.12 81.0675 262.975 81.2473C262.834 81.4271 262.723 81.6334 262.642 81.866C262.564 82.0952 262.526 82.3384 262.526 82.5958ZM273.562 77.9317V85.6735H272.584V79.1533L270.611 79.8724V78.9893L273.408 77.9317H273.562Z" fill="#8794BA"/>
<path d="M245.777 130.218C245.777 131.245 245.538 132.118 245.059 132.836C244.588 133.546 243.947 134.087 243.136 134.457C242.333 134.828 241.426 135.013 240.414 135.013C239.402 135.013 238.491 134.828 237.68 134.457C236.869 134.087 236.229 133.546 235.757 132.836C235.286 132.118 235.051 131.245 235.051 130.218C235.051 129.546 235.178 128.932 235.433 128.376C235.696 127.812 236.062 127.322 236.534 126.905C237.012 126.488 237.576 126.168 238.225 125.944C238.881 125.712 239.603 125.596 240.391 125.596C241.426 125.596 242.348 125.797 243.159 126.198C243.97 126.592 244.607 127.137 245.071 127.832C245.542 128.527 245.777 129.322 245.777 130.218ZM243.623 130.172C243.623 129.546 243.487 128.994 243.217 128.515C242.947 128.029 242.569 127.65 242.082 127.38C241.596 127.11 241.032 126.975 240.391 126.975C239.734 126.975 239.167 127.11 238.688 127.38C238.217 127.65 237.85 128.029 237.588 128.515C237.325 128.994 237.194 129.546 237.194 130.172C237.194 130.82 237.321 131.376 237.576 131.84C237.839 132.295 238.209 132.647 238.688 132.894C239.175 133.133 239.75 133.253 240.414 133.253C241.078 133.253 241.65 133.133 242.128 132.894C242.607 132.647 242.974 132.295 243.229 131.84C243.491 131.376 243.623 130.82 243.623 130.172ZM245.383 122.306C245.383 123.125 245.167 123.862 244.735 124.519C244.302 125.175 243.711 125.693 242.962 126.071C242.213 126.449 241.364 126.639 240.414 126.639C239.449 126.639 238.588 126.449 237.831 126.071C237.082 125.693 236.495 125.175 236.07 124.519C235.645 123.862 235.433 123.125 235.433 122.306C235.433 121.326 235.645 120.492 236.07 119.804C236.503 119.117 237.093 118.592 237.842 118.229C238.592 117.866 239.445 117.685 240.402 117.685C241.368 117.685 242.225 117.866 242.974 118.229C243.723 118.592 244.31 119.117 244.735 119.804C245.167 120.492 245.383 121.326 245.383 122.306ZM243.24 122.341C243.24 121.777 243.121 121.279 242.881 120.847C242.642 120.414 242.31 120.075 241.885 119.828C241.46 119.573 240.966 119.445 240.402 119.445C239.839 119.445 239.344 119.565 238.92 119.804C238.503 120.036 238.175 120.368 237.935 120.801C237.703 121.233 237.588 121.747 237.588 122.341C237.588 122.92 237.703 123.426 237.935 123.859C238.175 124.291 238.507 124.627 238.931 124.866C239.356 125.106 239.85 125.225 240.414 125.225C240.978 125.225 241.468 125.106 241.885 124.866C242.31 124.627 242.642 124.291 242.881 123.859C243.121 123.426 243.24 122.92 243.24 122.341ZM259.388 117.916V119.121L252.403 134.782H250.144L257.117 119.677H247.99V117.916H259.388ZM261.646 122.052V121.16C261.646 120.519 261.785 119.936 262.063 119.411C262.341 118.885 262.739 118.465 263.257 118.148C263.774 117.831 264.388 117.673 265.098 117.673C265.824 117.673 266.442 117.831 266.952 118.148C267.469 118.465 267.867 118.885 268.145 119.411C268.423 119.936 268.562 120.519 268.562 121.16V122.052C268.562 122.677 268.423 123.252 268.145 123.777C267.874 124.303 267.481 124.723 266.963 125.04C266.454 125.357 265.84 125.515 265.121 125.515C264.403 125.515 263.782 125.357 263.257 125.04C262.739 124.723 262.341 124.303 262.063 123.777C261.785 123.252 261.646 122.677 261.646 122.052ZM263.257 121.16V122.052C263.257 122.407 263.322 122.743 263.453 123.059C263.592 123.376 263.801 123.635 264.079 123.835C264.357 124.028 264.704 124.125 265.121 124.125C265.538 124.125 265.882 124.028 266.152 123.835C266.423 123.635 266.623 123.376 266.755 123.059C266.886 122.743 266.952 122.407 266.952 122.052V121.16C266.952 120.797 266.882 120.457 266.743 120.14C266.612 119.816 266.407 119.557 266.129 119.364C265.859 119.163 265.515 119.063 265.098 119.063C264.689 119.063 264.345 119.163 264.067 119.364C263.797 119.557 263.592 119.816 263.453 120.14C263.322 120.457 263.257 120.797 263.257 121.16ZM269.859 131.55V130.646C269.859 130.013 269.998 129.434 270.276 128.909C270.554 128.384 270.952 127.963 271.469 127.646C271.987 127.33 272.6 127.171 273.311 127.171C274.037 127.171 274.655 127.33 275.164 127.646C275.682 127.963 276.079 128.384 276.357 128.909C276.635 129.434 276.774 130.013 276.774 130.646V131.55C276.774 132.183 276.635 132.762 276.357 133.287C276.087 133.813 275.693 134.233 275.176 134.55C274.666 134.867 274.052 135.025 273.334 135.025C272.616 135.025 271.998 134.867 271.481 134.55C270.963 134.233 270.562 133.813 270.276 133.287C269.998 132.762 269.859 132.183 269.859 131.55ZM271.469 130.646V131.55C271.469 131.905 271.535 132.245 271.666 132.569C271.805 132.886 272.014 133.145 272.292 133.345C272.57 133.538 272.917 133.635 273.334 133.635C273.751 133.635 274.095 133.538 274.365 133.345C274.643 133.145 274.848 132.886 274.979 132.569C275.11 132.253 275.176 131.913 275.176 131.55V130.646C275.176 130.284 275.106 129.944 274.967 129.627C274.836 129.31 274.631 129.056 274.353 128.863C274.083 128.662 273.736 128.561 273.311 128.561C272.902 128.561 272.558 128.662 272.28 128.863C272.01 129.056 271.805 129.31 271.666 129.627C271.535 129.944 271.469 130.284 271.469 130.646ZM273.844 120.314L265.608 133.496L264.403 132.731L272.639 119.55L273.844 120.314Z" fill="#EF2A82"/>
<path d="M236.91 150.263V150.141C236.91 149.729 236.97 149.346 237.09 148.994C237.21 148.637 237.382 148.329 237.608 148.068C237.834 147.804 238.107 147.599 238.428 147.455C238.749 147.307 239.108 147.233 239.507 147.233C239.908 147.233 240.27 147.307 240.591 147.455C240.915 147.599 241.19 147.804 241.416 148.068C241.645 148.329 241.819 148.637 241.939 148.994C242.059 149.346 242.119 149.729 242.119 150.141V150.263C242.119 150.675 242.059 151.058 241.939 151.41C241.819 151.763 241.645 152.071 241.416 152.336C241.19 152.596 240.917 152.801 240.596 152.949C240.279 153.094 239.919 153.166 239.517 153.166C239.115 153.166 238.754 153.094 238.433 152.949C238.112 152.801 237.837 152.596 237.608 152.336C237.382 152.071 237.21 151.763 237.09 151.41C236.97 151.058 236.91 150.675 236.91 150.263ZM237.888 150.141V150.263C237.888 150.548 237.922 150.818 237.989 151.072C238.056 151.322 238.156 151.544 238.29 151.738C238.428 151.932 238.599 152.085 238.803 152.198C239.008 152.307 239.246 152.362 239.517 152.362C239.785 152.362 240.019 152.307 240.22 152.198C240.425 152.085 240.594 151.932 240.728 151.738C240.862 151.544 240.963 151.322 241.03 151.072C241.1 150.818 241.135 150.548 241.135 150.263V150.141C241.135 149.859 241.1 149.593 241.03 149.343C240.963 149.089 240.86 148.865 240.723 148.671C240.589 148.474 240.42 148.318 240.215 148.206C240.014 148.093 239.778 148.036 239.507 148.036C239.239 148.036 239.002 148.093 238.798 148.206C238.597 148.318 238.428 148.474 238.29 148.671C238.156 148.865 238.056 149.089 237.989 149.343C237.922 149.593 237.888 149.859 237.888 150.141ZM244.324 148.438V155.26H243.34V147.338H244.239L244.324 148.438ZM248.179 150.152V150.263C248.179 150.679 248.13 151.065 248.031 151.421C247.932 151.773 247.788 152.08 247.597 152.341C247.41 152.602 247.18 152.804 246.905 152.949C246.63 153.094 246.314 153.166 245.958 153.166C245.595 153.166 245.274 153.106 244.996 152.986C244.717 152.866 244.481 152.692 244.287 152.463C244.093 152.233 243.938 151.958 243.822 151.638C243.709 151.317 243.631 150.955 243.589 150.554V149.961C243.631 149.538 243.711 149.159 243.827 148.824C243.943 148.489 244.097 148.204 244.287 147.968C244.481 147.728 244.715 147.546 244.99 147.423C245.265 147.296 245.583 147.233 245.942 147.233C246.302 147.233 246.621 147.303 246.899 147.444C247.178 147.582 247.412 147.779 247.603 148.036C247.793 148.294 247.936 148.602 248.031 148.962C248.13 149.318 248.179 149.714 248.179 150.152ZM247.195 150.263V150.152C247.195 149.866 247.165 149.598 247.106 149.348C247.046 149.094 246.952 148.872 246.825 148.682C246.702 148.488 246.543 148.336 246.349 148.227C246.155 148.114 245.925 148.058 245.657 148.058C245.41 148.058 245.195 148.1 245.011 148.184C244.832 148.269 244.678 148.384 244.551 148.528C244.424 148.669 244.32 148.831 244.239 149.015C244.162 149.194 244.104 149.381 244.065 149.575V150.945C244.135 151.192 244.234 151.424 244.361 151.643C244.488 151.858 244.657 152.032 244.869 152.166C245.08 152.297 245.346 152.362 245.667 152.362C245.932 152.362 246.159 152.307 246.349 152.198C246.543 152.085 246.702 151.932 246.825 151.738C246.952 151.544 247.046 151.322 247.106 151.072C247.165 150.818 247.195 150.548 247.195 150.263ZM251.822 147.338V148.089H248.729V147.338H251.822ZM249.776 145.948H250.754V151.643C250.754 151.837 250.784 151.983 250.844 152.082C250.904 152.18 250.982 152.246 251.077 152.277C251.172 152.309 251.274 152.325 251.384 152.325C251.465 152.325 251.549 152.318 251.637 152.304C251.729 152.286 251.798 152.272 251.844 152.262L251.849 153.06C251.771 153.085 251.669 153.108 251.542 153.129C251.419 153.153 251.269 153.166 251.093 153.166C250.853 153.166 250.633 153.118 250.432 153.023C250.231 152.928 250.07 152.769 249.951 152.547C249.834 152.321 249.776 152.018 249.776 151.638V145.948ZM254.033 147.338V153.06H253.049V147.338H254.033ZM252.975 145.821C252.975 145.662 253.023 145.528 253.118 145.419C253.217 145.309 253.361 145.255 253.552 145.255C253.739 145.255 253.881 145.309 253.98 145.419C254.082 145.528 254.133 145.662 254.133 145.821C254.133 145.972 254.082 146.103 253.98 146.212C253.881 146.318 253.739 146.371 253.552 146.371C253.361 146.371 253.217 146.318 253.118 146.212C253.023 146.103 252.975 145.972 252.975 145.821ZM255.344 150.263V150.141C255.344 149.729 255.404 149.346 255.524 148.994C255.644 148.637 255.817 148.329 256.042 148.068C256.268 147.804 256.541 147.599 256.862 147.455C257.183 147.307 257.542 147.233 257.941 147.233C258.343 147.233 258.704 147.307 259.025 147.455C259.349 147.599 259.624 147.804 259.85 148.068C260.079 148.329 260.253 148.637 260.373 148.994C260.493 149.346 260.553 149.729 260.553 150.141V150.263C260.553 150.675 260.493 151.058 260.373 151.41C260.253 151.763 260.079 152.071 259.85 152.336C259.624 152.596 259.351 152.801 259.03 152.949C258.713 153.094 258.353 153.166 257.951 153.166C257.549 153.166 257.188 153.094 256.867 152.949C256.547 152.801 256.272 152.596 256.042 152.336C255.817 152.071 255.644 151.763 255.524 151.41C255.404 151.058 255.344 150.675 255.344 150.263ZM256.323 150.141V150.263C256.323 150.548 256.356 150.818 256.423 151.072C256.49 151.322 256.591 151.544 256.725 151.738C256.862 151.932 257.033 152.085 257.237 152.198C257.442 152.307 257.68 152.362 257.951 152.362C258.219 152.362 258.454 152.307 258.655 152.198C258.859 152.085 259.028 151.932 259.162 151.738C259.296 151.544 259.397 151.322 259.464 151.072C259.534 150.818 259.57 150.548 259.57 150.263V150.141C259.57 149.859 259.534 149.593 259.464 149.343C259.397 149.089 259.295 148.865 259.157 148.671C259.023 148.474 258.854 148.318 258.649 148.206C258.448 148.093 258.212 148.036 257.941 148.036C257.673 148.036 257.437 148.093 257.232 148.206C257.031 148.318 256.862 148.474 256.725 148.671C256.591 148.865 256.49 149.089 256.423 149.343C256.356 149.593 256.323 149.859 256.323 150.141ZM262.758 148.56V153.06H261.78V147.338H262.705L262.758 148.56ZM262.526 149.982L262.118 149.967C262.122 149.575 262.18 149.214 262.293 148.882C262.406 148.548 262.564 148.257 262.769 148.01C262.973 147.763 263.217 147.573 263.499 147.439C263.784 147.301 264.1 147.233 264.445 147.233C264.727 147.233 264.981 147.271 265.207 147.349C265.432 147.423 265.624 147.543 265.783 147.709C265.945 147.874 266.069 148.089 266.153 148.354C266.238 148.615 266.28 148.934 266.28 149.311V153.06H265.297V149.3C265.297 149.001 265.252 148.761 265.164 148.581C265.076 148.398 264.948 148.266 264.778 148.184C264.609 148.1 264.401 148.058 264.154 148.058C263.911 148.058 263.689 148.109 263.488 148.211C263.291 148.313 263.12 148.454 262.975 148.634C262.834 148.814 262.723 149.02 262.642 149.253C262.564 149.482 262.526 149.725 262.526 149.982ZM275.391 152.256V153.06H270.352V152.357L272.874 149.549C273.185 149.203 273.424 148.911 273.594 148.671C273.766 148.428 273.886 148.211 273.953 148.021C274.024 147.827 274.059 147.629 274.059 147.428C274.059 147.174 274.006 146.945 273.9 146.741C273.798 146.533 273.646 146.367 273.445 146.244C273.245 146.12 273.001 146.059 272.716 146.059C272.374 146.059 272.088 146.126 271.859 146.26C271.633 146.39 271.464 146.573 271.351 146.81C271.239 147.046 271.182 147.317 271.182 147.624H270.204C270.204 147.19 270.299 146.794 270.489 146.434C270.68 146.074 270.962 145.789 271.336 145.577C271.709 145.362 272.169 145.255 272.716 145.255C273.202 145.255 273.618 145.341 273.964 145.514C274.309 145.683 274.574 145.923 274.757 146.233C274.944 146.54 275.037 146.899 275.037 147.312C275.037 147.538 274.998 147.767 274.921 147.999C274.847 148.229 274.743 148.458 274.609 148.687C274.478 148.916 274.325 149.142 274.149 149.364C273.976 149.586 273.791 149.804 273.594 150.019L271.531 152.256H275.391Z" fill="#8794BA"/>
<path d="M105.093 51.537C105.041 50.1604 106.116 48.9966 107.493 49.0066C119.491 49.0932 131.166 53.0572 140.756 60.3419C151.009 68.1305 158.244 79.2333 161.229 91.7585C164.213 104.284 162.763 117.456 157.124 129.032C151.485 140.607 142.007 149.87 130.305 155.241C118.603 160.611 105.4 161.758 92.9473 158.486C80.4941 155.214 69.5607 147.725 62.0101 137.296C54.4594 126.866 50.7587 114.141 51.5384 101.289C52.2677 89.2683 56.8742 77.8319 64.6314 68.6785C65.5221 67.6275 67.105 67.5716 68.115 68.5085V68.5085C69.125 69.4453 69.1791 71.0198 68.2931 72.0747C61.3184 80.3789 57.1774 90.7226 56.518 101.591C55.8081 113.291 59.1772 124.876 66.051 134.37C72.9248 143.865 82.8781 150.683 94.215 153.661C105.552 156.64 117.571 155.596 128.224 150.707C138.878 145.817 147.506 137.385 152.639 126.847C157.772 116.309 159.093 104.317 156.376 92.9149C153.659 81.5125 147.072 71.4049 137.738 64.3144C129.068 57.7279 118.525 54.1234 107.681 53.9973C106.303 53.9812 105.145 52.9136 105.093 51.537V51.537Z" fill="#EF2A82"/>
<path d="M104.107 27.9948C104.03 26.0081 105.578 24.3264 107.567 24.3382C123.14 24.4302 138.381 29.0498 151.413 37.6721C165.447 46.9576 176.21 60.4165 182.183 76.1486C188.156 91.8807 189.037 109.092 184.702 125.351C180.367 141.611 171.035 156.099 158.022 166.77C145.01 177.44 128.975 183.754 112.181 184.82C95.3869 185.887 78.682 181.652 64.4245 172.713C50.167 163.774 39.077 150.583 32.72 135.002C26.8172 120.534 25.2722 104.684 28.2322 89.3939C28.6101 87.4419 30.5625 86.2527 32.4956 86.7177V86.7177C34.4287 87.1826 35.6096 89.1256 35.2403 91.0793C32.6278 104.901 34.0535 119.211 39.3865 132.282C45.1736 146.467 55.2695 158.475 68.249 166.613C81.2285 174.75 96.436 178.606 111.725 177.635C127.013 176.664 141.611 170.916 153.457 161.202C165.303 151.488 173.799 138.299 177.745 123.497C181.692 108.694 180.89 93.0262 175.452 78.7042C170.014 64.3823 160.216 52.1299 147.44 43.6766C135.666 35.8868 121.912 31.6858 107.847 31.5406C105.859 31.5201 104.185 29.9815 104.107 27.9948V27.9948Z" fill="#EF2A82"/>
<path d="M99.2218 103.5L98.7001 103.366L98.9574 100.81H101.591V101.413H99.5109L99.3558 102.809C99.4498 102.755 99.5685 102.705 99.7118 102.658C99.8576 102.611 100.024 102.587 100.212 102.587C100.45 102.587 100.663 102.628 100.851 102.711C101.039 102.791 101.198 102.906 101.33 103.056C101.464 103.207 101.566 103.388 101.637 103.599C101.707 103.811 101.742 104.047 101.742 104.308C101.742 104.554 101.708 104.781 101.64 104.988C101.574 105.195 101.475 105.376 101.341 105.531C101.207 105.684 101.037 105.802 100.833 105.887C100.631 105.972 100.392 106.014 100.117 106.014C99.9104 106.014 99.7142 105.986 99.5285 105.929C99.3452 105.871 99.1807 105.782 99.035 105.665C98.8916 105.545 98.7741 105.397 98.6824 105.221C98.5931 105.042 98.5367 104.833 98.5132 104.593H99.1337C99.1619 104.786 99.2183 104.948 99.3029 105.08C99.3875 105.211 99.498 105.311 99.6343 105.379C99.7729 105.445 99.9339 105.478 100.117 105.478C100.272 105.478 100.41 105.451 100.53 105.397C100.65 105.343 100.751 105.265 100.833 105.164C100.915 105.063 100.977 104.941 101.02 104.798C101.064 104.654 101.087 104.493 101.087 104.315C101.087 104.153 101.064 104.002 101.02 103.863C100.975 103.725 100.908 103.604 100.819 103.5C100.732 103.397 100.625 103.317 100.498 103.261C100.371 103.202 100.225 103.172 100.061 103.172C99.8423 103.172 99.6766 103.202 99.5638 103.261C99.4533 103.319 99.3393 103.399 99.2218 103.5ZM103.283 103.5L102.761 103.366L103.019 100.81H105.652V101.413H103.572L103.417 102.809C103.511 102.755 103.63 102.705 103.773 102.658C103.919 102.611 104.086 102.587 104.274 102.587C104.511 102.587 104.724 102.628 104.912 102.711C105.1 102.791 105.26 102.906 105.391 103.056C105.525 103.207 105.627 103.388 105.698 103.599C105.768 103.811 105.804 104.047 105.804 104.308C105.804 104.554 105.77 104.781 105.701 104.988C105.636 105.195 105.536 105.376 105.402 105.531C105.268 105.684 105.099 105.802 104.894 105.887C104.692 105.972 104.453 106.014 104.179 106.014C103.972 106.014 103.775 105.986 103.59 105.929C103.406 105.871 103.242 105.782 103.096 105.665C102.953 105.545 102.835 105.397 102.744 105.221C102.654 105.042 102.598 104.833 102.574 104.593H103.195C103.223 104.786 103.28 104.948 103.364 105.08C103.449 105.211 103.559 105.311 103.696 105.379C103.834 105.445 103.995 105.478 104.179 105.478C104.334 105.478 104.471 105.451 104.591 105.397C104.711 105.343 104.812 105.265 104.894 105.164C104.976 105.063 105.039 104.941 105.081 104.798C105.126 104.654 105.148 104.493 105.148 104.315C105.148 104.153 105.126 104.002 105.081 103.863C105.036 103.725 104.969 103.604 104.88 103.5C104.793 103.397 104.686 103.317 104.559 103.261C104.432 103.202 104.287 103.172 104.122 103.172C103.904 103.172 103.738 103.202 103.625 103.261C103.515 103.319 103.401 103.399 103.283 103.5ZM107.947 103.493V104.029H106.227V103.493H107.947ZM111.018 100.803H111.074V101.357H111.018C110.672 101.357 110.383 101.413 110.151 101.526C109.918 101.637 109.733 101.786 109.597 101.974C109.461 102.16 109.362 102.369 109.301 102.601C109.242 102.834 109.213 103.07 109.213 103.31V104.064C109.213 104.292 109.24 104.494 109.294 104.671C109.348 104.845 109.422 104.992 109.516 105.111C109.61 105.231 109.716 105.322 109.833 105.383C109.953 105.444 110.078 105.475 110.207 105.475C110.357 105.475 110.491 105.446 110.609 105.39C110.726 105.331 110.825 105.25 110.905 105.147C110.987 105.041 111.049 104.916 111.092 104.773C111.134 104.63 111.155 104.472 111.155 104.301C111.155 104.148 111.136 104.001 111.099 103.86C111.061 103.717 111.004 103.59 110.926 103.479C110.849 103.366 110.751 103.278 110.634 103.215C110.518 103.149 110.381 103.116 110.221 103.116C110.04 103.116 109.871 103.161 109.713 103.25C109.558 103.337 109.43 103.452 109.329 103.596C109.23 103.737 109.174 103.89 109.16 104.057L108.814 104.054C108.847 103.791 108.908 103.566 108.998 103.38C109.089 103.192 109.202 103.04 109.336 102.922C109.472 102.802 109.624 102.715 109.791 102.661C109.96 102.605 110.139 102.577 110.327 102.577C110.583 102.577 110.804 102.625 110.99 102.721C111.175 102.818 111.328 102.947 111.448 103.109C111.568 103.269 111.656 103.45 111.712 103.652C111.771 103.852 111.8 104.057 111.8 104.269C111.8 104.511 111.766 104.738 111.698 104.949C111.63 105.161 111.528 105.346 111.391 105.506C111.257 105.666 111.092 105.791 110.894 105.88C110.697 105.969 110.468 106.014 110.207 106.014C109.93 106.014 109.688 105.958 109.481 105.845C109.274 105.73 109.102 105.577 108.966 105.386C108.83 105.196 108.727 104.985 108.659 104.752C108.591 104.519 108.557 104.283 108.557 104.043V103.737C108.557 103.375 108.593 103.02 108.666 102.672C108.739 102.324 108.865 102.009 109.044 101.727C109.225 101.445 109.475 101.221 109.794 101.054C110.114 100.887 110.522 100.803 111.018 100.803ZM116.045 104.216V104.752H112.336V104.368L114.635 100.81H115.167L114.596 101.84L113.077 104.216H116.045ZM115.329 100.81V105.943H114.677V100.81H115.329Z" fill="#8794BA"/>
<path d="M3.87202 4.63411L1.60637 10.8717H0.680363L3.28915 4.02775H3.88612L3.87202 4.63411ZM5.77103 10.8717L3.50068 4.63411L3.48657 4.02775H4.08354L6.70173 10.8717H5.77103ZM5.65351 8.33812V9.08081H1.80849V8.33812H5.65351ZM10.7818 5.78574H11.5715V10.7636C11.5715 11.2117 11.4806 11.594 11.2988 11.9105C11.1171 12.227 10.8633 12.4667 10.5374 12.6297C10.2146 12.7958 9.84168 12.8788 9.41863 12.8788C9.24315 12.8788 9.03632 12.8506 8.79816 12.7942C8.56314 12.7409 8.33124 12.6485 8.10249 12.5169C7.87686 12.3884 7.68727 12.2145 7.53372 11.9951L7.98967 11.4781C8.20276 11.735 8.42526 11.9137 8.65715 12.0139C8.89217 12.1142 9.12407 12.1643 9.35282 12.1643C9.62859 12.1643 9.86675 12.1126 10.0673 12.0092C10.2679 11.9058 10.423 11.7523 10.5327 11.5486C10.6455 11.348 10.7019 11.1005 10.7019 10.8059V6.90446L10.7818 5.78574ZM7.2799 8.38513V8.28642C7.2799 7.89784 7.32533 7.5453 7.41621 7.2288C7.51022 6.90916 7.6434 6.63497 7.81575 6.40621C7.99124 6.17745 8.20276 6.00196 8.45032 5.87975C8.69789 5.7544 8.97678 5.69173 9.28702 5.69173C9.60665 5.69173 9.88555 5.74814 10.1237 5.86095C10.365 5.97063 10.5687 6.13201 10.7348 6.3451C10.904 6.55506 11.0372 6.80889 11.1343 7.10659C11.2315 7.40429 11.2988 7.74116 11.3364 8.1172V8.54965C11.302 8.92255 11.2346 9.25786 11.1343 9.55556C11.0372 9.85326 10.904 10.1071 10.7348 10.317C10.5687 10.527 10.365 10.6884 10.1237 10.8012C9.88242 10.9109 9.60039 10.9657 9.27762 10.9657C8.97365 10.9657 8.69789 10.9015 8.45032 10.773C8.2059 10.6445 7.99594 10.4643 7.82046 10.2324C7.64497 10.0005 7.51022 9.72791 7.41621 9.41454C7.32533 9.09804 7.2799 8.7549 7.2799 8.38513ZM8.14949 8.28642V8.38513C8.14949 8.63896 8.17456 8.87712 8.2247 9.09961C8.27797 9.3221 8.35788 9.51795 8.46443 9.68717C8.57411 9.85639 8.71355 9.98957 8.88277 10.0867C9.05199 10.1807 9.25411 10.2277 9.48914 10.2277C9.77744 10.2277 10.0156 10.1666 10.2036 10.0444C10.3916 9.9222 10.5405 9.76081 10.6502 9.56026C10.763 9.3597 10.8507 9.14191 10.9134 8.90689V7.77406C10.8789 7.60171 10.8257 7.43562 10.7536 7.27581C10.6846 7.11285 10.5938 6.9687 10.4809 6.84336C10.3713 6.71488 10.235 6.61303 10.072 6.53782C9.90905 6.46262 9.7179 6.42501 9.49854 6.42501C9.26038 6.42501 9.05513 6.47515 8.88277 6.57543C8.71355 6.67257 8.57411 6.80732 8.46443 6.97967C8.35788 7.14889 8.27797 7.34631 8.2247 7.57194C8.17456 7.79443 8.14949 8.03259 8.14949 8.28642ZM15.0029 10.9657C14.6487 10.9657 14.3275 10.9062 14.0392 10.7871C13.7541 10.6649 13.5081 10.4941 13.3013 10.2747C13.0976 10.0554 12.9409 9.79528 12.8312 9.49445C12.7215 9.19362 12.6667 8.86458 12.6667 8.50734V8.30992C12.6667 7.89627 12.7278 7.52807 12.85 7.2053C12.9722 6.87939 13.1383 6.60363 13.3483 6.37801C13.5582 6.15238 13.7964 5.9816 14.0627 5.86565C14.3291 5.7497 14.6049 5.69173 14.89 5.69173C15.2535 5.69173 15.5669 5.7544 15.8301 5.87975C16.0965 6.0051 16.3143 6.18058 16.4835 6.40621C16.6527 6.6287 16.7781 6.89193 16.8596 7.1959C16.941 7.49673 16.9818 7.82577 16.9818 8.18301V8.57315H13.1837V7.86337H16.1122V7.79756C16.0996 7.57194 16.0526 7.35258 15.9712 7.13949C15.8928 6.9264 15.7675 6.75091 15.5951 6.61303C15.4228 6.47515 15.1877 6.40621 14.89 6.40621C14.6926 6.40621 14.5109 6.44851 14.3448 6.53312C14.1787 6.6146 14.0361 6.73681 13.917 6.89976C13.798 7.06272 13.7055 7.2617 13.6397 7.49673C13.5739 7.73176 13.541 8.00282 13.541 8.30992V8.50734C13.541 8.74864 13.5739 8.97583 13.6397 9.18892C13.7086 9.39887 13.8074 9.58376 13.9358 9.74358C14.0674 9.9034 14.2257 10.0287 14.4106 10.1196C14.5986 10.2105 14.8117 10.2559 15.0499 10.2559C15.357 10.2559 15.6171 10.1933 15.8301 10.0679C16.0432 9.94257 16.2297 9.77492 16.3895 9.56496L16.916 9.98331C16.8063 10.1494 16.6668 10.3076 16.4976 10.4581C16.3284 10.6085 16.12 10.7307 15.8724 10.8247C15.628 10.9187 15.3382 10.9657 15.0029 10.9657ZM20.9584 9.52265C20.9584 9.39731 20.9302 9.28136 20.8738 9.17482C20.8205 9.06514 20.7093 8.96643 20.5401 8.87868C20.374 8.78781 20.1233 8.70946 19.788 8.64366C19.5059 8.58412 19.2506 8.51361 19.0218 8.43213C18.7962 8.35066 18.6034 8.25195 18.4436 8.136C18.2869 8.02005 18.1663 7.88374 18.0817 7.72706C17.9971 7.57037 17.9548 7.38705 17.9548 7.17709C17.9548 6.97654 17.9986 6.78695 18.0864 6.60833C18.1773 6.42971 18.3042 6.27146 18.4671 6.13358C18.6332 5.9957 18.8322 5.88758 19.0641 5.80924C19.296 5.7309 19.5545 5.69173 19.8397 5.69173C20.2471 5.69173 20.5949 5.7638 20.8832 5.90795C21.1715 6.0521 21.3924 6.24482 21.546 6.48612C21.6995 6.72428 21.7763 6.98907 21.7763 7.28051H20.9067C20.9067 7.13949 20.8644 7.00318 20.7798 6.87156C20.6983 6.73681 20.5777 6.62557 20.4179 6.53782C20.2612 6.45008 20.0684 6.40621 19.8397 6.40621C19.5984 6.40621 19.4025 6.44381 19.2521 6.51902C19.1048 6.5911 18.9967 6.68354 18.9278 6.79635C18.862 6.90916 18.8291 7.02824 18.8291 7.15359C18.8291 7.2476 18.8447 7.33221 18.8761 7.40742C18.9106 7.47949 18.9701 7.54687 19.0547 7.60954C19.1393 7.66908 19.2584 7.72549 19.4119 7.77876C19.5655 7.83203 19.7613 7.88531 19.9995 7.93858C20.4163 8.03259 20.7594 8.1454 21.0289 8.27702C21.2984 8.40863 21.499 8.57002 21.6306 8.76117C21.7622 8.95232 21.828 9.18422 21.828 9.45685C21.828 9.67934 21.781 9.88303 21.687 10.0679C21.5961 10.2528 21.4629 10.4126 21.2874 10.5474C21.1151 10.679 20.9083 10.7824 20.667 10.8576C20.4288 10.9297 20.1609 10.9657 19.8632 10.9657C19.4151 10.9657 19.0359 10.8858 18.7257 10.726C18.4154 10.5662 18.1804 10.3593 18.0206 10.1055C17.8608 9.85169 17.7809 9.58376 17.7809 9.30173H18.6552C18.6677 9.53989 18.7366 9.72948 18.862 9.87049C18.9873 10.0084 19.1409 10.1071 19.3226 10.1666C19.5044 10.223 19.6846 10.2512 19.8632 10.2512C20.1013 10.2512 20.3003 10.2199 20.4602 10.1572C20.6231 10.0946 20.7469 10.0084 20.8315 9.8987C20.9161 9.78902 20.9584 9.66367 20.9584 9.52265Z" fill="#8794BA"/>
</svg>
